<svg xmlns="http://www.w3.org/2000/svg" viewBox="0 0 64 64">
  <defs>
    <clipPath id="dome">
      <path d="M6 34 C6 18 19 8 32 8 C45 8 58 18 58 34 L58 38 L6 38 Z"/>
    </clipPath>
  </defs>
  <g clip-path="url(#dome)">
    <rect x="6"  y="8" width="13" height="32" fill="#c8102e"/>
    <rect x="19" y="8" width="13" height="32" fill="#f4d300"/>
    <rect x="32" y="8" width="13" height="32" fill="#3eaf3a"/>
    <rect x="45" y="8" width="13" height="32" fill="#ff6a13"/>
  </g>
  <path d="M6 34 C6 18 19 8 32 8 C45 8 58 18 58 34 L58 38 L6 38 Z"
        fill="none" stroke="#162265" stroke-width="4" stroke-linejoin="round"/>
  <line x1="32" y1="8"  x2="32" y2="38" stroke="#162265" stroke-width="3"/>
  <line x1="19" y1="9"  x2="19" y2="38" stroke="#162265" stroke-width="3"/>
  <line x1="45" y1="9"  x2="45" y2="38" stroke="#162265" stroke-width="3"/>
  <path d="M8 36 L18 56"  stroke="#162265" stroke-width="3" stroke-linecap="round"/>
  <path d="M21 38 L26 58" stroke="#162265" stroke-width="3" stroke-linecap="round"/>
  <path d="M32 38 L32 60" stroke="#162265" stroke-width="3" stroke-linecap="round"/>
  <path d="M43 38 L38 58" stroke="#162265" stroke-width="3" stroke-linecap="round"/>
  <path d="M56 36 L46 56" stroke="#162265" stroke-width="3" stroke-linecap="round"/>
</svg>
