<svg xmlns="http://www.w3.org/2000/svg" viewBox="0 0 400 360" width="400" height="360">
  <defs>
    <style>
      .stroke      { fill: none; stroke: #121D5B; stroke-width: 12; stroke-linejoin: round; stroke-linecap: round; }
      .stroke-rib  { fill: none; stroke: #121D5B; stroke-width: 10; stroke-linejoin: round; stroke-linecap: round; }
      .rope        { fill: none; stroke: #121D5B; stroke-width: 8;  stroke-linejoin: round; stroke-linecap: round; }
      .rood   { fill: #C50E3E; }
      .geel   { fill: #EDDA1C; }
      .groen  { fill: #3BAF2A; }
      .oranje { fill: #FD661A; }
    </style>
  </defs>

  <path class="rood"   d="M 30 215 A 170 130 0 0 1 115 102.42 L 115 215 Z" />
  <path class="geel"   d="M 115 102.42 A 170 130 0 0 1 200 85 L 200 215 L 115 215 Z" />
  <path class="groen"  d="M 200 85 A 170 130 0 0 1 285 102.42 L 285 215 L 200 215 Z" />
  <path class="oranje" d="M 285 102.42 A 170 130 0 0 1 370 215 L 285 215 Z" />

  <path class="stroke" d="M 30 215 A 170 130 0 0 1 370 215" />

  <line class="stroke-rib" x1="115" y1="102.42" x2="115" y2="215" />
  <line class="stroke-rib" x1="200" y1="85"     x2="200" y2="215" />
  <line class="stroke-rib" x1="285" y1="102.42" x2="285" y2="215" />

  <line class="stroke" x1="30" y1="215" x2="370" y2="215" />

  <g class="rope">
    <line x1="30"  y1="215" x2="200" y2="340" />
    <line x1="115" y1="215" x2="200" y2="340" />
    <line x1="200" y1="215" x2="200" y2="340" />
    <line x1="285" y1="215" x2="200" y2="340" />
    <line x1="370" y1="215" x2="200" y2="340" />
  </g>
</svg>
